<svg width="23" height="16" viewBox="0 0 23 16" fill="none" xmlns="http://www.w3.org/2000/svg">
<path d="M1.50879 7.29695C0.956504 7.29695 0.508789 7.74467 0.508789 8.29695C0.508789 8.84924 0.956504 9.29695 1.50879 9.29695V7.29695ZM22.2159 9.00406C22.6064 8.61353 22.6064 7.98037 22.2159 7.58984L15.8519 1.22588C15.4614 0.835359 14.8282 0.835359 14.4377 1.22588C14.0472 1.61641 14.0472 2.24957 14.4377 2.6401L20.0946 8.29695L14.4377 13.9538C14.0472 14.3443 14.0472 14.9775 14.4377 15.368C14.8282 15.7585 15.4614 15.7585 15.8519 15.368L22.2159 9.00406ZM1.50879 9.29695H21.5088V7.29695H1.50879V9.29695Z" fill="#B2BAFF"/>
</svg>
